<svg xmlns="http://www.w3.org/2000/svg" viewBox="0 0 102.05 102.05"><defs><style>.cls-1{fill:#e81f76;}</style></defs><g id="Layer_2" data-name="Layer 2"><g id="Layer_1-2" data-name="Layer 1"><path class="cls-1" d="M51,0a51,51,0,1,0,51,51A51.09,51.09,0,0,0,51,0Zm0,95.05a44,44,0,1,1,44-44A44.08,44.08,0,0,1,51,95.05Zm0-82.21A38.19,38.19,0,1,0,89.21,51,38.19,38.19,0,0,0,51,12.84Zm8.56,54.42H40.4V55.34H59.59a6,6,0,0,1,6,6A6.08,6.08,0,0,1,59.59,67.26Zm0-20.55H40.4V34.79H59.59a6,6,0,0,1,0,11.92Z"/></g></g></svg>