<svg xmlns="http://www.w3.org/2000/svg" viewBox="0 0 669.89 133.97"><defs><style>.cls-1{fill:#fff;}</style></defs><g id="Layer_2" data-name="Layer 2"><g id="Layer_1-2" data-name="Layer 1"><path class="cls-1" d="M235.61,85.37l14.61-13.52A5.28,5.28,0,1,0,243,64.14L213.5,92.19V46.37a6.6,6.6,0,1,0-13.19,0v63.88a6.6,6.6,0,0,0,13.19,0v-5.1l13.89-12.84,18.1,22.44a5.62,5.62,0,1,0,8.69-7.13ZM192.5,103.7l-.41-.34a4.77,4.77,0,0,0-5.73-.22c-4.8,3.23-9.74,4.68-16.68,4.68-11.22,0-20.94-6.95-20.94-17.94v-1c0-10.3,9.25-17.94,20.94-17.94a27.42,27.42,0,0,1,16.34,5,5.17,5.17,0,0,0,6-.17,5.3,5.3,0,0,0-.26-8.7C186.05,63.33,178.43,61,169.1,61,151.17,61,135,72.87,135,89.42v.92c0,16.55,14.93,27.43,33.8,27.43,9.26,0,16.74-2,23.33-6.54A4.73,4.73,0,0,0,192.5,103.7ZM37.61,61c-10.65,0-19,4.16-24.42,12V46.37A6.6,6.6,0,1,0,0,46.37v65.95a4.53,4.53,0,0,0,8.85,1.33l2.61-8.5c3.12,7.87,14,12.62,25.11,12.62,16.55,0,28.81-13,28.81-27.54V88.49A27.57,27.57,0,0,0,37.61,61ZM51.73,90.23c0,11.68-7.41,18.16-18.63,18.16-9.15,0-19.33-6.13-19.33-17.7V89.53C13.77,78,22.1,70.32,33.1,70.32c11.22,0,18.63,6.6,18.63,18.17Zm80.13,18.19c-3.11-.44-4-1.7-4-4.65V86.41C127.9,70.67,119.57,61,99.09,61a41.33,41.33,0,0,0-21.72,5.79,4.93,4.93,0,0,0,4.88,8.57A34,34,0,0,1,98.51,70.9c10.88,0,16.2,4.63,16.2,12.5V87C89,80.16,68.3,87.22,68.3,101v.46c0,10.53,9.61,16.32,23.38,16.32,10.53,0,20.14-3.82,26.39-11-.47,8.8,5.67,11,12.61,11h.67a4.42,4.42,0,0,0,4.42-4.42v-.54A4.48,4.48,0,0,0,131.86,108.42ZM114.71,95.67c0,7.4-11.57,12.49-20.37,12.49C87.05,108.16,82,105,82,101.22v-.46c0-7.64,11.92-11.69,32.75-5.91Zm267.66-55.9a6.59,6.59,0,0,0-6.6,6.6V70.78c-5.09-6.25-12-9.83-22.56-9.83-15.74,0-29.75,13.19-29.75,27.89v1.73c0,14.7,12.16,27.2,29.51,27.2,11.23,0,20.83-5.21,24.54-13L379,112.7a5,5,0,0,0,10-.91V46.37A6.59,6.59,0,0,0,382.37,39.77Zm-7.29,50.8c0,10.65-8.57,17.82-19.1,17.82-10.76,0-18.74-7.17-18.74-18.4V88.72c0-11.22,7.52-18.4,18.74-18.4,11.92,0,19.1,8.91,19.1,19.1ZM287.17,61c-19.78,0-32.28,13.31-32.28,28.58v1c0,16.09,14.69,27.2,33.21,27.2,11,0,18.95-2.39,25.63-7.24a4.8,4.8,0,0,0-.38-7.93,4.93,4.93,0,0,0-5.41.25c-5.26,3.7-10.49,5.54-18.68,5.54-12.15,0-20.95-7.17-20.95-16.43v-.34h45.85a5.2,5.2,0,0,0,5.1-6.14C316.65,71.36,304.94,61,287.17,61ZM306.5,84.32H268.66v-.11c0-7.29,7.52-13.89,18.75-13.89,11,0,19.09,7.64,19.09,13.89ZM580.64,61c-10.65,0-19,4.16-24.42,12V46.37a6.6,6.6,0,1,0-13.19,0v65.95a4.53,4.53,0,0,0,8.85,1.33l2.6-8.5c3.13,7.87,14,12.62,25.11,12.62,16.55,0,28.82-13,28.82-27.54V88.49A27.58,27.58,0,0,0,580.64,61Zm14.11,29.28c0,11.68-7.4,18.16-18.63,18.16-9.14,0-19.32-6.13-19.32-17.7V89.53c0-11.57,8.33-19.21,19.32-19.21,11.23,0,18.63,6.6,18.63,18.17Zm68.71-27.55a6.41,6.41,0,0,0-5.8,3.68L646.44,90.11l-7,13.77-6.83-13.77L620.89,66.26a6.42,6.42,0,0,0-5.75-3.58h0a6.43,6.43,0,0,0-5.67,9.45l22.27,41.7-1.27,2.43c-2.78,5.33-6.72,8.34-14.24,8.34h-.87a4.69,4.69,0,0,0,0,9.37h.41c18.51,0,23.49-6.36,35.3-28.35l18-33.48A6.42,6.42,0,0,0,663.46,62.68ZM466.13,12.84A38.19,38.19,0,1,0,504.32,51,38.18,38.18,0,0,0,466.13,12.84Zm8.57,54.42H455.51V55.34H474.7a6,6,0,0,1,6,6A6.08,6.08,0,0,1,474.7,67.26Zm0-20.55H455.51V34.79H474.7a6,6,0,1,1,0,11.92ZM517.16,51a51,51,0,1,0-59.77,50.26v6.81s-29.41,2.32-28.19,9.67H464V102c.71,0,1.43,0,2.15,0s1.44,0,2.16,0v15.77h34.77c1.23-7.35-28.19-9.67-28.19-9.67v-6.81A51.1,51.1,0,0,0,517.16,51Zm-51,44a44,44,0,1,1,44-44A44.07,44.07,0,0,1,466.13,95.05Z"/></g></g></svg>